<svg width="14" height="16" viewBox="0 0 14 16" fill="none" xmlns="http://www.w3.org/2000/svg">
<path d="M11.3379 5.26014C11.3379 4.15308 10.8981 3.09135 10.1153 2.30853C9.33245 1.52572 8.27072 1.08594 7.16365 1.08594C6.05658 1.08594 4.99486 1.52572 4.21204 2.30853C3.42923 3.09135 2.98945 4.15308 2.98945 5.26014C2.98945 10.1301 0.902344 11.5215 0.902344 11.5215H13.425C13.425 11.5215 11.3379 10.1301 11.3379 5.26014Z" stroke="white" stroke-width="0.695701" stroke-linecap="round" stroke-linejoin="round"/>
<path d="M8.36709 14.3125C8.24477 14.5234 8.06922 14.6984 7.85799 14.82C7.64676 14.9417 7.40728 15.0057 7.16352 15.0057C6.91976 15.0057 6.68028 14.9417 6.46906 14.82C6.25783 14.6984 6.08227 14.5234 5.95996 14.3125" stroke="white" stroke-width="0.695701" stroke-linecap="round" stroke-linejoin="round"/>
</svg>
