<svg width="21" height="19" viewBox="0 0 21 19" fill="none" xmlns="http://www.w3.org/2000/svg">
<path d="M17.1016 5.3842V7.75781H14.728H12.3544V5.3842V3.01058H14.728H17.1016V5.3842ZM13.4093 5.3842V6.70287H14.728H16.0466V5.3842V4.06552H14.728H13.4093V5.3842Z" fill="white"/>
<path d="M15.2539 5.38659V5.91406H14.7264H14.199V5.38659V4.85912H14.7264H15.2539V5.38659Z" fill="white"/>
<path d="M10.3501 3.80359V4.59479H10.8775H11.405V5.12226V5.64974H10.8775H10.3501V6.17721V6.70468H10.8775H11.405V8.22115V9.73763H11.8797H12.3544V9.21016V8.68269H12.8819H13.4093V9.21016V9.73763H13.9368H14.4643V9.21016V8.68269H15.7829H17.1016V9.73763V10.7926H16.5741H16.0466V10.2651V9.73763H15.2555H14.4643V10.2651V10.7926H12.9346H11.405V11.5442V12.2959H10.8775H10.3501V12.8233V13.3508H10.8775H11.405V13.8783V14.4057H10.8775H10.3501V15.4607V16.5156H9.29515H8.24022V15.9882V15.4607H8.76769H9.29515V14.9332V14.4057H9.82261H10.3501V13.8783V13.3508H9.29515H8.24022V13.8783V14.4057H7.1853H6.13038V14.9332V15.4607H6.65784H7.1853V15.9882V16.5156H6.65784H6.13038V15.9882V15.4607H5.60292H5.07546V15.9882V16.5156H4.33702H3.59857V15.9882V15.4607H4.33702H5.07546V14.9332V14.4057H5.60292H6.13038V13.8783V13.3508H4.86448H3.59857V12.0717V10.7926H4.12603H4.65349V10.2651V9.73763H4.12603H3.59857V9.21016V8.68269H4.12603H4.65349V9.21016V9.73763H5.39194H6.13038V9.21016V8.68269H7.71276H9.29515V9.21016V9.73763H9.82261H10.3501V8.74862V7.75962H9.82261H9.29515V6.70468V5.64974H9.82261H10.3501V5.12226V4.59479H9.82261H9.29515V3.80359V3.01238H9.82261H10.3501V3.80359ZM10.3501 10.2651V10.7926H9.82261H9.29515V10.2651V9.73763H7.71276H6.13038V10.2651V10.7926H5.39194H4.65349V11.5442V12.2959H5.39194H6.13038V12.8233V13.3508H7.1853H8.24022V12.0717V10.7926H8.76769H9.29515V11.5442V12.2959H9.82261H10.3501V11.5442V10.7926H10.8775H11.405V10.2651V9.73763H10.8775H10.3501V10.2651Z" fill="white"/>
<path d="M7.18359 11.3202V11.8477H6.65613H6.12867V11.3202V10.7927H6.65613H7.18359V11.3202Z" fill="white"/>
<path d="M8.34766 5.3842V7.75781H5.97408H3.60051V5.3842V3.01058H5.97408H8.34766V5.3842ZM4.65543 5.3842V6.70287H5.97408H7.29273V5.3842V4.06552H5.97408H4.65543V5.3842Z" fill="white"/>
<path d="M6.5 5.38659V5.91406H5.97254H5.44508V5.38659V4.85912H5.97254H6.5V5.38659Z" fill="white"/>
<path d="M17.1016 14.142V16.5156H14.728H12.3544V14.142V11.7684H14.728H17.1016V14.142ZM13.4093 14.142V15.4607H14.728H16.0466V14.142V12.8233H14.728H13.4093V14.142Z" fill="white"/>
<path d="M15.2539 14.1405V14.668H14.7264H14.199V14.1405V13.613H14.7264H15.2539V14.1405Z" fill="white"/>
<rect x="0.332031" y="0.488281" width="1.04014" height="3.13672" fill="white"/>
<rect x="0.332031" y="1.53125" width="1.04014" height="3.13672" transform="rotate(-90 0.332031 1.53125)" fill="white"/>
<rect width="1.04014" height="3.13672" transform="matrix(-1 0 0 1 20.1562 0.488281)" fill="white"/>
<rect width="1.04014" height="3.13672" transform="matrix(0 -1 -1 0 20.1562 1.53125)" fill="white"/>
<rect x="20.1562" y="18.8555" width="1.04014" height="3.13672" transform="rotate(-180 20.1562 18.8555)" fill="white"/>
<rect x="20.1562" y="17.8125" width="1.04014" height="3.13672" transform="rotate(90 20.1562 17.8125)" fill="white"/>
<rect width="1.04014" height="3.13672" transform="matrix(1 0 0 -1 0.332031 18.8555)" fill="white"/>
<rect width="1.04014" height="3.13672" transform="matrix(0 1 1 0 0.332031 17.8125)" fill="white"/>
</svg>
