<svg width="9" height="10" viewBox="0 0 9 10" fill="none" xmlns="http://www.w3.org/2000/svg">
<mask id="path-1-inside-1_1516_107051" fill="white">
<path d="M8.2723 2.85687C7.84644 2.19285 7.24442 1.66025 6.53343 1.31852C5.82245 0.976796 5.03048 0.839387 4.24593 0.921635C3.46139 1.00388 2.71514 1.30255 2.09048 1.7843C1.46582 2.26605 0.987347 2.91193 0.708457 3.64983C0.429568 4.38773 0.361241 5.18862 0.511104 5.9631C0.660968 6.73758 1.02312 7.45517 1.55715 8.03577C2.09117 8.61637 2.77604 9.03713 3.53532 9.25109C4.2946 9.46505 5.09839 9.46378 5.85699 9.24742L5.73881 8.83304C5.05701 9.02749 4.3346 9.02863 3.65219 8.83634C2.96979 8.64404 2.35425 8.26588 1.8743 7.74406C1.39434 7.22224 1.06885 6.5773 0.934161 5.88124C0.799471 5.18517 0.86088 4.46536 1.11153 3.80217C1.36219 3.13898 1.79222 2.55849 2.35363 2.12552C2.91505 1.69254 3.58575 1.42411 4.29086 1.35019C4.99598 1.27627 5.70776 1.39977 6.34676 1.7069C6.98577 2.01403 7.52684 2.49271 7.90958 3.0895L8.2723 2.85687Z"/>
</mask>
<path d="M8.2723 2.85687C7.84644 2.19285 7.24442 1.66025 6.53343 1.31852C5.82245 0.976796 5.03048 0.839387 4.24593 0.921635C3.46139 1.00388 2.71514 1.30255 2.09048 1.7843C1.46582 2.26605 0.987347 2.91193 0.708457 3.64983C0.429568 4.38773 0.361241 5.18862 0.511104 5.9631C0.660968 6.73758 1.02312 7.45517 1.55715 8.03577C2.09117 8.61637 2.77604 9.03713 3.53532 9.25109C4.2946 9.46505 5.09839 9.46378 5.85699 9.24742L5.73881 8.83304C5.05701 9.02749 4.3346 9.02863 3.65219 8.83634C2.96979 8.64404 2.35425 8.26588 1.8743 7.74406C1.39434 7.22224 1.06885 6.5773 0.934161 5.88124C0.799471 5.18517 0.86088 4.46536 1.11153 3.80217C1.36219 3.13898 1.79222 2.55849 2.35363 2.12552C2.91505 1.69254 3.58575 1.42411 4.29086 1.35019C4.99598 1.27627 5.70776 1.39977 6.34676 1.7069C6.98577 2.01403 7.52684 2.49271 7.90958 3.0895L8.2723 2.85687Z" stroke="white" stroke-width="1.4" stroke-linejoin="round" mask="url(#path-1-inside-1_1516_107051)"/>
<mask id="path-2-inside-2_1516_107051" fill="white">
<path d="M5.82012 9.25776C6.63689 9.03274 7.36793 8.56908 7.91963 7.92614C8.47134 7.2832 8.81861 6.49023 8.91699 5.64876L8.48837 5.59865C8.39996 6.3548 8.0879 7.06737 7.59214 7.64512C7.09637 8.22287 6.43946 8.63952 5.7055 8.84172L5.82012 9.25776Z"/>
</mask>
<path d="M5.82012 9.25776C6.63689 9.03274 7.36793 8.56908 7.91963 7.92614C8.47134 7.2832 8.81861 6.49023 8.91699 5.64876L8.48837 5.59865C8.39996 6.3548 8.0879 7.06737 7.59214 7.64512C7.09637 8.22287 6.43946 8.63952 5.7055 8.84172L5.82012 9.25776Z" stroke="white" stroke-width="1.4" stroke-dasharray="1.79 1.96" mask="url(#path-2-inside-2_1516_107051)"/>
<path d="M4.67969 2.875V5.31595L5.81389 5.98561" stroke="white" stroke-width="0.7"/>
</svg>
